#!OML:ASF H:\Terrain\Walking\May29\JustinRory\Justin.ASF
:FULLY-SPECIFIED
:DEGREES
1
root 12.3067 17.6803 5.50197 -160.167 -70.8929 164.554
lowerback 5.27104 -3.14611 -13.6238
upperback 2.81177 -4.88524 0.991677
thorax 1.25538 -2.72006 8.85112
lowerneck 0.936912 -14.2583 -16.6773
upperneck 19.8537 -23.8426 16.2613
head 10.1618 -11.7981 5.55569
rclavicle 4.5149e-014 -1.69961e-014
rhumerus -33.0614 -19.8037 -70.1323
rradius 33.8808
rwrist -15.9329
rhand -8.59287 22.8153
rfingers 7.12502
rthumb 17.3383 -6.43132
lclavicle 4.5149e-014 -1.69961e-014
lhumerus -23.2966 6.99631 82.1899
lradius 28.1614
lwrist -9.24749
lhand 1.30135 39.5056
lfingers 7.12502
lthumb 26.8362 67.6213
rfemur -24.4396 -5.814 6.60139
rtibia 41.0925
rfoot -15.5898 -8.68685
rtoes 5.59879
lfemur -10.8182 9.77748 -24.5286
ltibia 30.1038
lfoot -19.3288 8.71402
ltoes -2.23423
2
root 12.3097 17.6812 5.4772 -160.357 -70.9168 164.701
lowerback 5.67878 -2.97325 -13.4941
upperback 2.68425 -4.71461 1.12043
thorax 0.846961 -2.59809 8.95474
lowerneck 1.00625 -14.4326 -16.827
upperneck 19.9811 -24.1095 16.1495
head 10.251 -11.936 5.4909
rclavicle 1.67476e-014 -2.48978e-014
rhumerus -33.3254 -20.2027 -69.0469
rradius 34.0551
rwrist -16.0347
rhand -7.92246 23.0978
rfingers 7.12502
rthumb 17.9834 -6.09075
lclavicle 1.67476e-014 -2.48978e-014
lhumerus -23.2475 6.55148 82.5425
lradius 28.2884
lwrist -9.05981
lhand 1.03125 39.3825
lfingers 7.12502
lthumb 26.5778 67.5375
rfemur -24.2775 -5.83816 6.45715
rtibia 41.1763
rfoot -15.4399 -8.71176
rtoes 4.25138
lfemur -10.8109 9.79511 -24.4078
ltibia 30.198
lfoot -19.1051 9.04083
ltoes -4.16578
3
root 12.3033 17.6782 5.44671 -160.308 -70.8615 164.576
lowerback 5.86517 -2.96323 -13.5986
upperback 2.67608 -4.73396 1.29587
thorax 0.764925 -2.60576 9.21885
lowerneck 0.895136 -14.4873 -16.872
upperneck 20.051 -24.0581 15.7586
head 10.2358 -11.9217 5.3619
rclavicle -7.32553e-014 -2.02263e-014
rhumerus -32.9785 -19.9236 -68.2796
rradius 34.1177
rwrist -16.5693
rhand -7.36971 22.9855
rfingers 7.12502
rthumb 18.5152 -6.15332
lclavicle -7.32553e-014 -2.02263e-014
lhumerus -23.2561 6.49957 82.8211
lradius 28.6724
lwrist -8.64597
lhand 1.25412 39.4588
lfingers 7.12502
lthumb 26.791 67.5814
rfemur -24.1394 -5.15925 5.94371
rtibia 40.818
rfoot -15.4284 -9.10779
rtoes 6.20413
lfemur -10.6354 9.78299 -24.3697
ltibia 30.0899
lfoot -18.973 9.12641
ltoes -4.62534
4
root 12.2915 17.6764 5.41127 -160.101 -70.9541 164.264
lowerback 5.75455 -3.03759 -13.4103
upperback 2.87531 -4.80167 1.17167
thorax 1.02782 -2.66713 8.95995
lowerneck 0.834345 -14.5006 -16.6831
upperneck 19.9121 -24.0822 15.9093
head 10.1979 -11.9091 5.37941
rclavicle 1.25798e-013 -2.10898e-014
rhumerus -32.3578 -19.8767 -68.0891
rradius 33.9967
rwrist -16.4183
rhand -7.82561 23.1876
rfingers 7.12502
rthumb 18.0766 -5.99238
lclavicle 1.25798e-013 -2.10898e-014
lhumerus -22.9856 6.20882 82.6928
lradius 29.047
lwrist -8.06793
lhand 1.5547 39.4694
lfingers 7.12502
lthumb 27.0786 67.5476
rfemur -23.9689 -4.63345 5.37727
rtibia 40.6033
rfoot -15.6571 -9.58118
rtoes 9.91843
lfemur -10.3959 10.0669 -24.2791
ltibia 29.955
lfoot -18.9033 8.79864
ltoes -4.99289
5
root 12.2837 17.6902 5.37842 -160.649 -71.212 164.887
lowerback 5.55939 -3.05326 -12.7092
upperback 3.05897 -4.75347 1.04395
thorax 1.24289 -2.65485 8.4032
lowerneck 0.970897 -14.5494 -16.5415
upperneck 19.664 -24.2953 16.4726
head 10.1882 -11.9822 5.5259
rclavicle 2.01394e-014 3.926e-015
rhumerus -32.1127 -20.3113 -67.769
rradius 34.1861
rwrist -15.8272
rhand -9.01288 23.5327
rfingers 7.12502
rthumb 16.934 -5.74906
lclavicle 2.01394e-014 3.926e-015
lhumerus -22.5489 5.53716 82.5773
lradius 29.3398
lwrist -7.53902
lhand 1.54437 39.4704
lfingers 7.12502
lthumb 27.0688 67.5502
rfemur -23.5965 -4.61974 5.40794
rtibia 40.2478
rfoot -15.4988 -9.96997
rtoes 9.41217
lfemur -10.3118 10.2876 -23.8127
ltibia 29.8522
lfoot -18.8991 8.35009
ltoes -4.48278
6
root 12.2801 17.7016 5.34484 -160.755 -71.3968 165.077
lowerback 5.68225 -3.03119 -12.5756
upperback 3.06249 -4.73272 1.30758
thorax 1.18536 -2.64247 8.62107
lowerneck 0.867366 -14.6757 -16.7798
upperneck 19.6355 -24.4154 16.4192
head 10.2451 -12.0386 5.50478
rclavicle -2.6954e-014 2.11457e-014
rhumerus -31.7113 -20.3563 -66.7753
rradius 34.2923
rwrist -15.8785
rhand -9.37215 23.7348
rfingers 7.12502
rthumb 16.5882 -5.57627
lclavicle -2.6954e-014 2.11457e-014
lhumerus -22.3823 5.246 83.0499
lradius 29.7269
lwrist -7.08378
lhand 1.21211 39.4928
lfingers 7.12502
lthumb 26.7508 67.6215
rfemur -23.5158 -4.75543 5.26162
rtibia 39.8949
rfoot -14.8399 -10.2567
rtoes 6.07075
lfemur -10.3117 10.427 -23.5328
ltibia 29.799
lfoot -18.9426 7.95778
ltoes -4.3976
7
root 12.282 17.679 5.30838 -160.052 -71.3887 164.262
lowerback 5.94768 -2.97454 -13.0342
upperback 3.11314 -4.71714 1.63509
thorax 1.1611 -2.65128 9.25343
lowerneck 0.53775 -14.8176 -17.0689
upperneck 19.6113 -24.423 16.1097
head 10.2921 -12.0386 5.40292
rclavicle 4.01048e-014 -3.02153e-014
rhumerus -30.9508 -20.0615 -65.72
rradius 34.272
rwrist -16.3903
rhand -9.34624 23.8312
rfingers 7.12502
rthumb 16.6131 -5.47778
lclavicle 4.01048e-014 -3.02153e-014
lhumerus -22.1893 5.34727 83.6957
lradius 30.0739
lwrist -6.84818
lhand 1.09432 39.3792
lfingers 7.12502
lthumb 26.6381 67.5251
rfemur -23.6798 -4.68468 4.55651
rtibia 39.612
rfoot -14.1721 -10.549
rtoes 5.1247
lfemur -10.1944 10.7279 -23.6309
ltibia 29.7413
lfoot -18.9161 7.71578
ltoes -5.89617
8
root 12.2845 17.6615 5.26788 -159.351 -71.2913 163.371
lowerback 6.13433 -2.8935 -13.4905
upperback 3.24134 -4.65917 1.81247
thorax 1.23839 -2.6496 9.71477
lowerneck 0.600196 -14.8962 -17.229
upperneck 19.2285 -24.432 16.1619
head 10.1742 -12.0468 5.44511
rclavicle 7.95139e-016 -3.3197e-014
rhumerus -30.2287 -20.1549 -64.8079
rradius 34.3487
rwrist -16.6459
rhand -9.56243 24.0011
rfingers 7.12502
rthumb 16.405 -5.32517
lclavicle 7.95139e-016 -3.3197e-014
lhumerus -21.9802 5.14358 84.2184
lradius 30.5183
lwrist -6.77786
lhand 1.0688 39.6979
lfingers 7.12502
lthumb 26.6137 67.8475
rfemur -23.4949 -4.5221 3.86311
rtibia 39.3608
rfoot -14.0548 -11.0436
rtoes 5.26982
lfemur -9.97179 10.8809 -23.7687
ltibia 29.6981
lfoot -18.8197 7.65771
ltoes -6.98809
9
root 12.2837 17.6716 5.22972 -158.81 -71.0688 162.856
lowerback 6.47483 -2.8429 -13.5703
upperback 2.97288 -4.65346 1.84862
thorax 0.769319 -2.59657 9.83798
lowerneck 1.1434 -14.8433 -17.4924
upperneck 19.0817 -24.4235 16.1982
head 10.0614 -12.0973 5.54313
rclavicle 6.75868e-014 -1.35174e-014
rhumerus -30.0371 -20.0683 -63.9019
rradius 34.5491
rwrist -17.1055
rhand -9.04332 24.1869
rfingers 7.12502
rthumb 16.9047 -5.09742
lclavicle 6.75868e-014 -1.35174e-014
lhumerus -22.4591 4.78876 84.4871
lradius 31.0579
lwrist -6.71782
lhand 0.821774 40.0857
lfingers 7.12502
lthumb 26.3773 68.2709
rfemur -23.3352 -4.31051 3.26343
rtibia 39.1229
rfoot -14.0197 -11.2673
rtoes 6.57721
lfemur -9.95534 11.1157 -23.8935
ltibia 29.6528
lfoot -18.7415 7.5779
ltoes -7.52708
10
root 12.278 17.6855 5.20677 -159.321 -71.0974 163.547
lowerback 6.28314 -2.98462 -13.0674
upperback 3.11495 -4.78097 2.02579
thorax 1.03253 -2.68345 9.7246
lowerneck 1.03693 -14.7941 -17.7709
upperneck 18.8615 -24.3071 16.4101
head 10.0484 -12.0371 5.66425
rclavicle 7.05686e-015 -1.82882e-014
rhumerus -29.0027 -19.8297 -63.4621
rradius 34.8842
rwrist -17.7089
rhand -9.01425 24.1685
rfingers 7.12502
rthumb 16.9327 -5.11333
lclavicle 7.05686e-015 -1.82882e-014
lhumerus -22.1468 4.9154 84.6717
lradius 31.3814
lwrist -6.7638
lhand 0.767306 39.6071
lfingers 7.12502
lthumb 26.3251 67.8001
rfemur -23.35 -4.37222 3.13461
rtibia 38.9123
rfoot -13.5924 -11.4147
rtoes 6.35726
lfemur -10.0238 11.2588 -23.6042
ltibia 29.53
lfoot -18.6834 7.50442
ltoes -8.18761
11
root 12.2691 17.6869 5.18718 -159.001 -71.3621 163.233
lowerback 6.27259 -3.10744 -12.6918
upperback 3.3295 -4.91987 2.13006
thorax 1.27805 -2.78064 9.61385
lowerneck 0.803089 -14.8485 -17.8318
upperneck 18.5315 -24.2886 16.6112
head 10.0079 -11.9986 5.72271
rclavicle -1.07344e-014 -6.75868e-015
rhumerus -27.9802 -19.9751 -62.8801
rradius 35.1284
rwrist -18.2014
rhand -10.4928 24.0232
rfingers 7.12502
rthumb 15.5091 -5.37477
lclavicle -1.07344e-014 -6.75868e-015
lhumerus -21.7447 4.27457 84.9943
lradius 31.8721
lwrist -6.43687
lhand 0.984939 39.1346
lfingers 7.12502
lthumb 26.5334 67.2964
rfemur -23.2006 -4.76557 2.71845
rtibia 38.6117
rfoot -13.1726 -11.665
rtoes 4.82307
lfemur -9.93733 10.9928 -23.5606
ltibia 29.3728
lfoot -18.5743 7.49847
ltoes -9.08048
